# xmcd
#
# Track frame offsets:
# 150
# 17223
# 34637
# 48454
# 64414
# 74222
# 90641
# 102965
# 122738
# 145496
# 171411
# 188901
# 200382
# 211791
# 231491
# 255180
#
# Disc length: 3592 seconds
#
#
# Revision: 1
# Processed by: cddbd v1.5.1PL0 Copyright (c) Steve Scherf et al.
# Submitted via: FreeRIP 2.92 
#
DISCID=f10e0610
DTITLE=Eric Clapton - Big Boss Man CD 2
DYEAR=1900
DGENRE=
TTITLE0=Stormy Monday Blues
TTITLE1=Big Boss Man
TTITLE2=Jeff´s Blues
TTITLE3=Train Kept A Rollin
TTITLE4=Tribute To Elmore
TTITLE5=Little Red Rooster
TTITLE6=Highway 49
TTITLE7=Wang-Dang-Doodle
TTITLE8=Five Long Years
TTITLE9=She´s So Respectable
TTITLE10=Who Do You Love
TTITLE11=Got Love If You Want It
TTITLE12=Good Morning Little Showgirl
TTITLE13=I´m A Man
TTITLE14=23 Hours Too Long
TTITLE15=Out On The Water Coast
EXTD=Most Famous Hits
EXTT0=
EXTT1=
EXTT2=
EXTT3=
EXTT4=
EXTT5=
EXTT6=
EXTT7=
EXTT8=
EXTT9=
EXTT10=
EXTT11=
EXTT12=
EXTT13=
EXTT14=
EXTT15=
PLAYORDER=
